<mxfile host="app.diagrams.net" modified="2022-10-27T09:59:08.003Z" agent="5.0 (Windows NT 10.0; Win64; x64) AppleWebKit/537.36 (KHTML, like Gecko) Chrome/106.0.0.0 Safari/537.36" etag="BOpXWNqsbLwDuyvzJb_u" version="20.5.1" type="github">
  <diagram id="ZWF6b7iuOPfIiEEski0A" name="Страница 1">
    <mxGraphModel dx="1169" dy="450" grid="0" gridSize="10" guides="1" tooltips="1" connect="1" arrows="1" fold="1" page="0" pageScale="1" pageWidth="827" pageHeight="1169" math="0" shadow="0">
      <root>
        <mxCell id="0" />
        <mxCell id="1" parent="0" />
        <mxCell id="YZMeSxpaRm9HqnoEJb-N-1" value="Any user" style="shape=umlActor;verticalLabelPosition=bottom;verticalAlign=top;html=1;outlineConnect=0;fillColor=#5F4FE3;strokeColor=#3B337B;" parent="1" vertex="1">
          <mxGeometry x="40" y="20" width="30" height="60" as="geometry" />
        </mxCell>
        <mxCell id="YZMeSxpaRm9HqnoEJb-N-5" value="Manager" style="shape=umlActor;verticalLabelPosition=bottom;verticalAlign=top;html=1;outlineConnect=0;fillColor=#5F4FE3;strokeColor=#3B337B;" parent="1" vertex="1">
          <mxGeometry x="280" y="20" width="30" height="60" as="geometry" />
        </mxCell>
        <mxCell id="YZMeSxpaRm9HqnoEJb-N-8" value="Admin" style="shape=umlActor;verticalLabelPosition=bottom;verticalAlign=top;html=1;outlineConnect=0;fillColor=#5F4FE3;strokeColor=#3B337B;" parent="1" vertex="1">
          <mxGeometry x="440" y="20" width="30" height="60" as="geometry" />
        </mxCell>
        <mxCell id="YZMeSxpaRm9HqnoEJb-N-9" value="Developer" style="shape=umlActor;verticalLabelPosition=bottom;verticalAlign=top;html=1;outlineConnect=0;fillColor=#5F4FE3;strokeColor=#3B337B;" parent="1" vertex="1">
          <mxGeometry x="360" y="20" width="30" height="60" as="geometry" />
        </mxCell>
        <mxCell id="YZMeSxpaRm9HqnoEJb-N-10" value="Student" style="shape=umlActor;verticalLabelPosition=bottom;verticalAlign=top;html=1;outlineConnect=0;fillColor=#5F4FE3;strokeColor=#3B337B;" parent="1" vertex="1">
          <mxGeometry x="120" y="20" width="30" height="60" as="geometry" />
        </mxCell>
        <mxCell id="YZMeSxpaRm9HqnoEJb-N-15" value="Tutor" style="shape=umlActor;verticalLabelPosition=bottom;verticalAlign=top;html=1;outlineConnect=0;fillColor=#5F4FE3;strokeColor=#3B337B;" parent="1" vertex="1">
          <mxGeometry x="200" y="20" width="30" height="60" as="geometry" />
        </mxCell>
        <mxCell id="YZMeSxpaRm9HqnoEJb-N-58" style="edgeStyle=orthogonalEdgeStyle;rounded=1;orthogonalLoop=1;jettySize=auto;html=1;exitX=0.5;exitY=1;exitDx=0;exitDy=0;entryX=0.5;entryY=1;entryDx=0;entryDy=0;strokeColor=#8099E9;" parent="1" source="YZMeSxpaRm9HqnoEJb-N-20" target="YZMeSxpaRm9HqnoEJb-N-21" edge="1">
          <mxGeometry relative="1" as="geometry" />
        </mxCell>
        <mxCell id="YZMeSxpaRm9HqnoEJb-N-20" value="Not registred, anyone who on website&lt;br&gt;&lt;b&gt;Default access&lt;/b&gt;" style="rounded=0;whiteSpace=wrap;html=1;strokeColor=#3B337B;" parent="1" vertex="1">
          <mxGeometry x="20" y="120" width="80" height="80" as="geometry" />
        </mxCell>
        <mxCell id="YZMeSxpaRm9HqnoEJb-N-21" value="Only registred students" style="rounded=0;whiteSpace=wrap;html=1;strokeColor=#3B337B;" parent="1" vertex="1">
          <mxGeometry x="100" y="120" width="80" height="80" as="geometry" />
        </mxCell>
        <mxCell id="YZMeSxpaRm9HqnoEJb-N-22" value="Course tutors" style="rounded=0;whiteSpace=wrap;html=1;strokeColor=#3B337B;" parent="1" vertex="1">
          <mxGeometry x="180" y="120" width="80" height="80" as="geometry" />
        </mxCell>
        <mxCell id="YZMeSxpaRm9HqnoEJb-N-23" value="Can get all information, but not to edit" style="rounded=0;whiteSpace=wrap;html=1;strokeColor=#3B337B;" parent="1" vertex="1">
          <mxGeometry x="260" y="120" width="80" height="80" as="geometry" />
        </mxCell>
        <mxCell id="YZMeSxpaRm9HqnoEJb-N-24" value="Full access other than reports" style="rounded=0;whiteSpace=wrap;html=1;strokeColor=#3B337B;" parent="1" vertex="1">
          <mxGeometry x="340" y="120" width="80" height="80" as="geometry" />
        </mxCell>
        <mxCell id="YZMeSxpaRm9HqnoEJb-N-25" value="Full access" style="rounded=0;whiteSpace=wrap;html=1;strokeColor=#3B337B;" parent="1" vertex="1">
          <mxGeometry x="420" y="120" width="80" height="80" as="geometry" />
        </mxCell>
        <mxCell id="YZMeSxpaRm9HqnoEJb-N-28" value="Visit codemode.kz" style="edgeStyle=orthogonalEdgeStyle;rounded=1;orthogonalLoop=1;jettySize=auto;html=1;entryX=0;entryY=0.5;entryDx=0;entryDy=0;strokeColor=#8099E9;exitX=0.5;exitY=0.5;exitDx=0;exitDy=0;exitPerimeter=0;" parent="1" source="YZMeSxpaRm9HqnoEJb-N-26" target="YZMeSxpaRm9HqnoEJb-N-29" edge="1">
          <mxGeometry relative="1" as="geometry">
            <mxPoint x="240" y="550" as="targetPoint" />
            <Array as="points" />
          </mxGeometry>
        </mxCell>
        <mxCell id="YZMeSxpaRm9HqnoEJb-N-26" value="Any user" style="shape=umlActor;verticalLabelPosition=bottom;verticalAlign=top;html=1;outlineConnect=0;fillColor=#5F4FE3;strokeColor=#3B337B;" parent="1" vertex="1">
          <mxGeometry x="40" y="530" width="30" height="60" as="geometry" />
        </mxCell>
        <mxCell id="YZMeSxpaRm9HqnoEJb-N-32" value=":getCourses(), :filterCourses()" style="edgeStyle=orthogonalEdgeStyle;rounded=1;orthogonalLoop=1;jettySize=auto;html=1;exitX=0.5;exitY=0;exitDx=0;exitDy=0;entryX=0.5;entryY=1;entryDx=0;entryDy=0;strokeColor=#8099E9;" parent="1" source="YZMeSxpaRm9HqnoEJb-N-29" target="YZMeSxpaRm9HqnoEJb-N-46" edge="1">
          <mxGeometry relative="1" as="geometry">
            <mxPoint x="300" y="450" as="targetPoint" />
          </mxGeometry>
        </mxCell>
        <mxCell id="YZMeSxpaRm9HqnoEJb-N-34" value=":getTutors(), :filterTutors()" style="edgeStyle=orthogonalEdgeStyle;rounded=1;orthogonalLoop=1;jettySize=auto;html=1;exitX=1;exitY=0.25;exitDx=0;exitDy=0;entryX=0.5;entryY=1;entryDx=0;entryDy=0;strokeColor=#8099E9;" parent="1" source="YZMeSxpaRm9HqnoEJb-N-29" target="YZMeSxpaRm9HqnoEJb-N-47" edge="1">
          <mxGeometry x="0.4873" relative="1" as="geometry">
            <mxPoint x="460" y="450" as="targetPoint" />
            <Array as="points">
              <mxPoint x="460" y="545" />
            </Array>
            <mxPoint as="offset" />
          </mxGeometry>
        </mxCell>
        <mxCell id="YZMeSxpaRm9HqnoEJb-N-38" style="edgeStyle=orthogonalEdgeStyle;rounded=1;orthogonalLoop=1;jettySize=auto;html=1;exitX=0.5;exitY=1;exitDx=0;exitDy=0;entryX=0.5;entryY=0;entryDx=0;entryDy=0;strokeColor=#8099E9;" parent="1" source="YZMeSxpaRm9HqnoEJb-N-29" edge="1">
          <mxGeometry relative="1" as="geometry">
            <mxPoint x="300" y="670" as="targetPoint" />
          </mxGeometry>
        </mxCell>
        <mxCell id="YZMeSxpaRm9HqnoEJb-N-39" value=":getReviews()" style="edgeLabel;html=1;align=center;verticalAlign=middle;resizable=0;points=[];" parent="YZMeSxpaRm9HqnoEJb-N-38" vertex="1" connectable="0">
          <mxGeometry x="-0.2536" relative="1" as="geometry">
            <mxPoint as="offset" />
          </mxGeometry>
        </mxCell>
        <mxCell id="YZMeSxpaRm9HqnoEJb-N-41" style="edgeStyle=orthogonalEdgeStyle;rounded=1;orthogonalLoop=1;jettySize=auto;html=1;exitX=1;exitY=0.75;exitDx=0;exitDy=0;entryX=0.5;entryY=0;entryDx=0;entryDy=0;strokeColor=#8099E9;" parent="1" source="YZMeSxpaRm9HqnoEJb-N-29" target="YZMeSxpaRm9HqnoEJb-N-49" edge="1">
          <mxGeometry relative="1" as="geometry">
            <mxPoint x="460" y="670" as="targetPoint" />
          </mxGeometry>
        </mxCell>
        <mxCell id="YZMeSxpaRm9HqnoEJb-N-42" value=":postCredentials()" style="edgeLabel;html=1;align=center;verticalAlign=middle;resizable=0;points=[];" parent="YZMeSxpaRm9HqnoEJb-N-41" vertex="1" connectable="0">
          <mxGeometry x="0.3627" relative="1" as="geometry">
            <mxPoint y="12" as="offset" />
          </mxGeometry>
        </mxCell>
        <mxCell id="YZMeSxpaRm9HqnoEJb-N-44" style="edgeStyle=orthogonalEdgeStyle;rounded=1;orthogonalLoop=1;jettySize=auto;html=1;exitX=1;exitY=0.5;exitDx=0;exitDy=0;entryX=0;entryY=0.5;entryDx=0;entryDy=0;strokeColor=#8099E9;" parent="1" source="YZMeSxpaRm9HqnoEJb-N-29" target="YZMeSxpaRm9HqnoEJb-N-48" edge="1">
          <mxGeometry relative="1" as="geometry">
            <mxPoint x="560" y="560" as="targetPoint" />
          </mxGeometry>
        </mxCell>
        <mxCell id="YZMeSxpaRm9HqnoEJb-N-45" value=":register(), :login(), :resetPassword()" style="edgeLabel;html=1;align=center;verticalAlign=middle;resizable=0;points=[];" parent="YZMeSxpaRm9HqnoEJb-N-44" vertex="1" connectable="0">
          <mxGeometry x="0.606" y="-2" relative="1" as="geometry">
            <mxPoint x="-85" y="-2" as="offset" />
          </mxGeometry>
        </mxCell>
        <mxCell id="YZMeSxpaRm9HqnoEJb-N-29" value=":IT School" style="rounded=1;whiteSpace=wrap;html=1;fillColor=#3B337B;strokeColor=#8099E9;fontColor=#ffffff;gradientColor=#171430;gradientDirection=south;" parent="1" vertex="1">
          <mxGeometry x="240" y="530" width="120" height="60" as="geometry" />
        </mxCell>
        <mxCell id="YZMeSxpaRm9HqnoEJb-N-62" style="edgeStyle=orthogonalEdgeStyle;rounded=1;orthogonalLoop=1;jettySize=auto;html=1;exitX=0.5;exitY=0;exitDx=0;exitDy=0;entryX=0.5;entryY=1;entryDx=0;entryDy=0;strokeColor=#8099E9;fontSize=12;" parent="1" source="YZMeSxpaRm9HqnoEJb-N-46" target="YZMeSxpaRm9HqnoEJb-N-61" edge="1">
          <mxGeometry relative="1" as="geometry" />
        </mxCell>
        <mxCell id="YZMeSxpaRm9HqnoEJb-N-72" value=":getCourseTutors()" style="edgeLabel;html=1;align=center;verticalAlign=middle;resizable=0;points=[];fontSize=12;" parent="YZMeSxpaRm9HqnoEJb-N-62" vertex="1" connectable="0">
          <mxGeometry x="0.3452" y="-1" relative="1" as="geometry">
            <mxPoint x="16" y="9" as="offset" />
          </mxGeometry>
        </mxCell>
        <mxCell id="YZMeSxpaRm9HqnoEJb-N-46" value=":Courses" style="rounded=1;whiteSpace=wrap;html=1;fillColor=#3B337B;strokeColor=#8099E9;fontColor=#ffffff;gradientColor=#171430;gradientDirection=south;" parent="1" vertex="1">
          <mxGeometry x="240" y="390" width="120" height="60" as="geometry" />
        </mxCell>
        <mxCell id="YZMeSxpaRm9HqnoEJb-N-64" style="edgeStyle=orthogonalEdgeStyle;rounded=1;orthogonalLoop=1;jettySize=auto;html=1;exitX=0.5;exitY=0;exitDx=0;exitDy=0;strokeColor=#8099E9;fontSize=12;entryX=0.5;entryY=1;entryDx=0;entryDy=0;" parent="1" source="YZMeSxpaRm9HqnoEJb-N-47" target="YZMeSxpaRm9HqnoEJb-N-61" edge="1">
          <mxGeometry relative="1" as="geometry">
            <mxPoint x="380.02857142857147" y="380" as="targetPoint" />
          </mxGeometry>
        </mxCell>
        <mxCell id="YZMeSxpaRm9HqnoEJb-N-47" value=":Tutors" style="rounded=1;whiteSpace=wrap;html=1;fillColor=#3B337B;strokeColor=#8099E9;fontColor=#ffffff;gradientColor=#171430;gradientDirection=south;" parent="1" vertex="1">
          <mxGeometry x="400" y="390" width="120" height="60" as="geometry" />
        </mxCell>
        <mxCell id="YZMeSxpaRm9HqnoEJb-N-48" value=":Users" style="rounded=1;whiteSpace=wrap;html=1;fillColor=#3B337B;strokeColor=#8099E9;fontColor=#ffffff;gradientColor=#171430;gradientDirection=south;" parent="1" vertex="1">
          <mxGeometry x="600" y="530" width="120" height="60" as="geometry" />
        </mxCell>
        <mxCell id="YZMeSxpaRm9HqnoEJb-N-49" value=":Leave contacts" style="rounded=1;whiteSpace=wrap;html=1;fillColor=#3B337B;strokeColor=#8099E9;fontColor=#ffffff;gradientColor=#171430;gradientDirection=south;" parent="1" vertex="1">
          <mxGeometry x="400" y="670" width="120" height="60" as="geometry" />
        </mxCell>
        <mxCell id="YZMeSxpaRm9HqnoEJb-N-50" value=":Reviews" style="rounded=1;whiteSpace=wrap;html=1;fillColor=#3B337B;strokeColor=#8099E9;fontColor=#ffffff;gradientColor=#171430;gradientDirection=south;" parent="1" vertex="1">
          <mxGeometry x="240" y="670" width="120" height="60" as="geometry" />
        </mxCell>
        <mxCell id="YZMeSxpaRm9HqnoEJb-N-53" value="Visit codemode.kz" style="edgeStyle=orthogonalEdgeStyle;rounded=0;orthogonalLoop=1;jettySize=auto;html=1;exitX=0.5;exitY=0.5;exitDx=0;exitDy=0;exitPerimeter=0;entryX=-0.022;entryY=0.497;entryDx=0;entryDy=0;entryPerimeter=0;strokeColor=#8099E9;" parent="1" source="YZMeSxpaRm9HqnoEJb-N-51" target="YZMeSxpaRm9HqnoEJb-N-52" edge="1">
          <mxGeometry relative="1" as="geometry">
            <Array as="points">
              <mxPoint x="90" y="1180" />
              <mxPoint x="90" y="1180" />
            </Array>
          </mxGeometry>
        </mxCell>
        <mxCell id="YZMeSxpaRm9HqnoEJb-N-51" value="Student" style="shape=umlActor;verticalLabelPosition=bottom;verticalAlign=top;html=1;outlineConnect=0;fillColor=#5F4FE3;strokeColor=#3B337B;" parent="1" vertex="1">
          <mxGeometry x="40" y="1150" width="30" height="60" as="geometry" />
        </mxCell>
        <mxCell id="YZMeSxpaRm9HqnoEJb-N-65" value=":addReview(), &lt;br&gt;:deleteReview(), &lt;br&gt;:editReview()" style="edgeStyle=orthogonalEdgeStyle;rounded=1;orthogonalLoop=1;jettySize=auto;html=1;exitX=0.5;exitY=0;exitDx=0;exitDy=0;entryX=0.5;entryY=1;entryDx=0;entryDy=0;strokeColor=#8099E9;fontSize=12;" parent="1" source="YZMeSxpaRm9HqnoEJb-N-52" target="YZMeSxpaRm9HqnoEJb-N-60" edge="1">
          <mxGeometry relative="1" as="geometry" />
        </mxCell>
        <mxCell id="YZMeSxpaRm9HqnoEJb-N-67" style="edgeStyle=orthogonalEdgeStyle;rounded=1;orthogonalLoop=1;jettySize=auto;html=1;exitX=1;exitY=0.5;exitDx=0;exitDy=0;entryX=0;entryY=0.5;entryDx=0;entryDy=0;strokeColor=#8099E9;fontSize=12;" parent="1" source="YZMeSxpaRm9HqnoEJb-N-52" target="YZMeSxpaRm9HqnoEJb-N-66" edge="1">
          <mxGeometry relative="1" as="geometry" />
        </mxCell>
        <mxCell id="YZMeSxpaRm9HqnoEJb-N-68" value=":requestCourse(), &lt;br&gt;:deleteRequest(),&lt;br&gt;:editRequest()" style="edgeLabel;html=1;align=center;verticalAlign=middle;resizable=0;points=[];fontSize=12;" parent="YZMeSxpaRm9HqnoEJb-N-67" vertex="1" connectable="0">
          <mxGeometry x="0.1667" y="2" relative="1" as="geometry">
            <mxPoint x="-10" y="2" as="offset" />
          </mxGeometry>
        </mxCell>
        <mxCell id="YZMeSxpaRm9HqnoEJb-N-70" style="edgeStyle=orthogonalEdgeStyle;rounded=1;orthogonalLoop=1;jettySize=auto;html=1;exitX=0.5;exitY=1;exitDx=0;exitDy=0;entryX=0.5;entryY=0;entryDx=0;entryDy=0;strokeColor=#8099E9;fontSize=12;" parent="1" source="YZMeSxpaRm9HqnoEJb-N-52" target="YZMeSxpaRm9HqnoEJb-N-69" edge="1">
          <mxGeometry relative="1" as="geometry">
            <Array as="points" />
          </mxGeometry>
        </mxCell>
        <mxCell id="YZMeSxpaRm9HqnoEJb-N-71" value=":getTutorSchedule(), &lt;br&gt;:getCourseSchedule()" style="edgeLabel;html=1;align=center;verticalAlign=middle;resizable=0;points=[];fontSize=12;" parent="YZMeSxpaRm9HqnoEJb-N-70" vertex="1" connectable="0">
          <mxGeometry x="-0.1613" y="-1" relative="1" as="geometry">
            <mxPoint as="offset" />
          </mxGeometry>
        </mxCell>
        <mxCell id="YZMeSxpaRm9HqnoEJb-N-52" value=":IT School" style="rounded=1;whiteSpace=wrap;html=1;fillColor=#3B337B;strokeColor=#8099E9;fontColor=#ffffff;gradientColor=#171430;gradientDirection=south;" parent="1" vertex="1">
          <mxGeometry x="240" y="1150" width="120" height="60" as="geometry" />
        </mxCell>
        <mxCell id="YZMeSxpaRm9HqnoEJb-N-59" value="&lt;h1 style=&quot;font-size: 18px;&quot;&gt;Student&lt;/h1&gt;&lt;p style=&quot;&quot;&gt;We take every registred user as student. Every student have all default access.&lt;/p&gt;" style="text;html=1;strokeColor=none;fillColor=none;spacing=5;spacingTop=-20;whiteSpace=wrap;overflow=hidden;rounded=0;align=center;" parent="1" vertex="1">
          <mxGeometry x="-5" y="1020" width="120" height="120" as="geometry" />
        </mxCell>
        <mxCell id="YZMeSxpaRm9HqnoEJb-N-60" value=":CourseReviews" style="rounded=1;whiteSpace=wrap;html=1;fillColor=#3B337B;strokeColor=#8099E9;fontColor=#ffffff;gradientColor=#171430;gradientDirection=south;" parent="1" vertex="1">
          <mxGeometry x="240" y="990" width="120" height="60" as="geometry" />
        </mxCell>
        <mxCell id="YZMeSxpaRm9HqnoEJb-N-61" value=":CourseTutors" style="rounded=1;whiteSpace=wrap;html=1;fillColor=#3B337B;strokeColor=#8099E9;fontColor=#ffffff;gradientColor=#171430;gradientDirection=south;" parent="1" vertex="1">
          <mxGeometry x="320" y="270" width="120" height="60" as="geometry" />
        </mxCell>
        <mxCell id="YZMeSxpaRm9HqnoEJb-N-66" value=":CourseStudents" style="rounded=1;whiteSpace=wrap;html=1;fillColor=#3B337B;strokeColor=#8099E9;fontColor=#ffffff;gradientColor=#171430;gradientDirection=south;" parent="1" vertex="1">
          <mxGeometry x="480" y="1150" width="120" height="60" as="geometry" />
        </mxCell>
        <mxCell id="YZMeSxpaRm9HqnoEJb-N-69" value=":CourseTutors" style="rounded=1;whiteSpace=wrap;html=1;fillColor=#3B337B;strokeColor=#8099E9;fontColor=#ffffff;gradientColor=#171430;gradientDirection=south;" parent="1" vertex="1">
          <mxGeometry x="240" y="1310" width="120" height="60" as="geometry" />
        </mxCell>
        <mxCell id="RXY274BOxz8V3t3p-DMx-3" style="edgeStyle=orthogonalEdgeStyle;rounded=1;orthogonalLoop=1;jettySize=auto;html=1;exitX=0.5;exitY=0.5;exitDx=0;exitDy=0;exitPerimeter=0;entryX=0;entryY=0.5;entryDx=0;entryDy=0;strokeColor=#8099E9;fontSize=12;" edge="1" parent="1" source="RXY274BOxz8V3t3p-DMx-1" target="RXY274BOxz8V3t3p-DMx-2">
          <mxGeometry relative="1" as="geometry" />
        </mxCell>
        <mxCell id="RXY274BOxz8V3t3p-DMx-1" value="Tutor" style="shape=umlActor;verticalLabelPosition=bottom;verticalAlign=top;html=1;outlineConnect=0;fillColor=#5F4FE3;strokeColor=#3B337B;" vertex="1" parent="1">
          <mxGeometry x="960" y="530" width="30" height="60" as="geometry" />
        </mxCell>
        <mxCell id="RXY274BOxz8V3t3p-DMx-5" style="edgeStyle=orthogonalEdgeStyle;rounded=1;orthogonalLoop=1;jettySize=auto;html=1;exitX=0.5;exitY=0;exitDx=0;exitDy=0;entryX=0.5;entryY=1;entryDx=0;entryDy=0;strokeColor=#8099E9;fontSize=12;fontColor=#FFFFFF;" edge="1" parent="1" source="RXY274BOxz8V3t3p-DMx-2" target="RXY274BOxz8V3t3p-DMx-4">
          <mxGeometry relative="1" as="geometry" />
        </mxCell>
        <mxCell id="RXY274BOxz8V3t3p-DMx-6" value=":addSchedule(), &lt;br&gt;:editSchedule(), &lt;br&gt;:deleteSchedule()" style="edgeLabel;html=1;align=center;verticalAlign=middle;resizable=0;points=[];fontSize=12;fontColor=#000000;" vertex="1" connectable="0" parent="RXY274BOxz8V3t3p-DMx-5">
          <mxGeometry x="-0.1469" relative="1" as="geometry">
            <mxPoint as="offset" />
          </mxGeometry>
        </mxCell>
        <mxCell id="RXY274BOxz8V3t3p-DMx-2" value="&lt;font color=&quot;#ffffff&quot;&gt;:IT School&lt;/font&gt;" style="rounded=1;whiteSpace=wrap;html=1;strokeColor=#3B337B;fontSize=12;fillColor=#3B337B;gradientColor=#171430;gradientDirection=south;" vertex="1" parent="1">
          <mxGeometry x="1080" y="530" width="120" height="60" as="geometry" />
        </mxCell>
        <mxCell id="RXY274BOxz8V3t3p-DMx-4" value=":CourseTutors" style="rounded=1;whiteSpace=wrap;html=1;strokeColor=#3B337B;fontSize=12;fontColor=#FFFFFF;fillColor=#3B337B;gradientColor=#171430;gradientDirection=south;" vertex="1" parent="1">
          <mxGeometry x="1080" y="350" width="120" height="60" as="geometry" />
        </mxCell>
        <mxCell id="RXY274BOxz8V3t3p-DMx-7" value="&lt;h1 style=&quot;font-size: 18px;&quot;&gt;Tutor&lt;/h1&gt;&lt;p style=&quot;&quot;&gt;Our course tutors. Every tutor have default access.&lt;/p&gt;" style="text;html=1;strokeColor=none;fillColor=none;spacing=5;spacingTop=-20;whiteSpace=wrap;overflow=hidden;rounded=0;align=center;" vertex="1" parent="1">
          <mxGeometry x="915" y="400" width="120" height="120" as="geometry" />
        </mxCell>
        <mxCell id="RXY274BOxz8V3t3p-DMx-10" style="edgeStyle=orthogonalEdgeStyle;rounded=1;orthogonalLoop=1;jettySize=auto;html=1;exitX=0.5;exitY=0.5;exitDx=0;exitDy=0;exitPerimeter=0;entryX=0;entryY=0.5;entryDx=0;entryDy=0;strokeColor=#8099E9;fontSize=12;fontColor=#FFFFFF;" edge="1" parent="1" source="RXY274BOxz8V3t3p-DMx-8" target="RXY274BOxz8V3t3p-DMx-9">
          <mxGeometry relative="1" as="geometry" />
        </mxCell>
        <mxCell id="RXY274BOxz8V3t3p-DMx-8" value="Manager" style="shape=umlActor;verticalLabelPosition=bottom;verticalAlign=top;html=1;outlineConnect=0;fillColor=#5F4FE3;strokeColor=#3B337B;" vertex="1" parent="1">
          <mxGeometry x="960" y="1150" width="30" height="60" as="geometry" />
        </mxCell>
        <mxCell id="RXY274BOxz8V3t3p-DMx-12" style="edgeStyle=orthogonalEdgeStyle;rounded=1;orthogonalLoop=1;jettySize=auto;html=1;exitX=0.5;exitY=0;exitDx=0;exitDy=0;strokeColor=#8099E9;fontSize=12;fontColor=#FFFFFF;" edge="1" parent="1" source="RXY274BOxz8V3t3p-DMx-9" target="RXY274BOxz8V3t3p-DMx-11">
          <mxGeometry relative="1" as="geometry" />
        </mxCell>
        <mxCell id="RXY274BOxz8V3t3p-DMx-13" value="&lt;font color=&quot;#000000&quot;&gt;:acceptReview(), &lt;br&gt;:declineReview()&lt;/font&gt;" style="edgeLabel;html=1;align=center;verticalAlign=middle;resizable=0;points=[];fontSize=12;fontColor=#FFFFFF;" vertex="1" connectable="0" parent="RXY274BOxz8V3t3p-DMx-12">
          <mxGeometry x="-0.1947" y="-2" relative="1" as="geometry">
            <mxPoint x="-2" y="-14" as="offset" />
          </mxGeometry>
        </mxCell>
        <mxCell id="RXY274BOxz8V3t3p-DMx-15" style="edgeStyle=orthogonalEdgeStyle;rounded=1;orthogonalLoop=1;jettySize=auto;html=1;exitX=1;exitY=0.25;exitDx=0;exitDy=0;entryX=0.5;entryY=1;entryDx=0;entryDy=0;strokeColor=#8099E9;fontSize=12;fontColor=#000000;" edge="1" parent="1" source="RXY274BOxz8V3t3p-DMx-9" target="RXY274BOxz8V3t3p-DMx-14">
          <mxGeometry relative="1" as="geometry">
            <Array as="points">
              <mxPoint x="1220" y="1165" />
              <mxPoint x="1220" y="1120" />
              <mxPoint x="1340" y="1120" />
              <mxPoint x="1340" y="1150" />
            </Array>
          </mxGeometry>
        </mxCell>
        <mxCell id="RXY274BOxz8V3t3p-DMx-16" value=":editData()" style="edgeLabel;html=1;align=center;verticalAlign=middle;resizable=0;points=[];fontSize=12;fontColor=#000000;" vertex="1" connectable="0" parent="RXY274BOxz8V3t3p-DMx-15">
          <mxGeometry x="-0.1364" relative="1" as="geometry">
            <mxPoint as="offset" />
          </mxGeometry>
        </mxCell>
        <mxCell id="RXY274BOxz8V3t3p-DMx-22" style="edgeStyle=orthogonalEdgeStyle;rounded=1;orthogonalLoop=1;jettySize=auto;html=1;exitX=1;exitY=0.75;exitDx=0;exitDy=0;entryX=0;entryY=0.5;entryDx=0;entryDy=0;strokeColor=#8099E9;fontSize=12;fontColor=#000000;" edge="1" parent="1" source="RXY274BOxz8V3t3p-DMx-9" target="RXY274BOxz8V3t3p-DMx-21">
          <mxGeometry relative="1" as="geometry">
            <Array as="points">
              <mxPoint x="1220" y="1195" />
              <mxPoint x="1220" y="1240" />
            </Array>
          </mxGeometry>
        </mxCell>
        <mxCell id="RXY274BOxz8V3t3p-DMx-23" value=":editData()" style="edgeLabel;html=1;align=center;verticalAlign=middle;resizable=0;points=[];fontSize=12;fontColor=#000000;" vertex="1" connectable="0" parent="RXY274BOxz8V3t3p-DMx-22">
          <mxGeometry x="0.2946" y="2" relative="1" as="geometry">
            <mxPoint as="offset" />
          </mxGeometry>
        </mxCell>
        <mxCell id="RXY274BOxz8V3t3p-DMx-9" value=":IT School" style="rounded=1;whiteSpace=wrap;html=1;strokeColor=#3B337B;fontSize=12;fontColor=#FFFFFF;fillColor=#3B337B;gradientColor=#171430;gradientDirection=south;" vertex="1" parent="1">
          <mxGeometry x="1080" y="1150" width="120" height="60" as="geometry" />
        </mxCell>
        <mxCell id="RXY274BOxz8V3t3p-DMx-11" value=":Reviews" style="rounded=1;whiteSpace=wrap;html=1;strokeColor=#3B337B;fontSize=12;fontColor=#FFFFFF;fillColor=#3B337B;gradientColor=#171430;gradientDirection=south;" vertex="1" parent="1">
          <mxGeometry x="1080" y="950" width="120" height="60" as="geometry" />
        </mxCell>
        <mxCell id="RXY274BOxz8V3t3p-DMx-26" style="edgeStyle=orthogonalEdgeStyle;rounded=1;orthogonalLoop=1;jettySize=auto;html=1;exitX=1;exitY=0.5;exitDx=0;exitDy=0;strokeColor=#8099E9;fontSize=12;fontColor=#000000;entryX=0;entryY=0.5;entryDx=0;entryDy=0;" edge="1" parent="1" source="RXY274BOxz8V3t3p-DMx-14" target="RXY274BOxz8V3t3p-DMx-17">
          <mxGeometry relative="1" as="geometry">
            <mxPoint x="1620" y="1179.9999999999998" as="targetPoint" />
          </mxGeometry>
        </mxCell>
        <mxCell id="RXY274BOxz8V3t3p-DMx-14" value=":StaffSalary" style="rounded=1;whiteSpace=wrap;html=1;strokeColor=#3B337B;fontSize=12;fontColor=#FFFFFF;fillColor=#3B337B;gradientColor=#171430;gradientDirection=south;" vertex="1" parent="1">
          <mxGeometry x="1320" y="1090" width="120" height="60" as="geometry" />
        </mxCell>
        <mxCell id="RXY274BOxz8V3t3p-DMx-17" value=":Report&lt;br&gt;(month, year)" style="rounded=1;whiteSpace=wrap;html=1;strokeColor=#3B337B;fontSize=12;fontColor=#FFFFFF;fillColor=#3B337B;gradientColor=#171430;gradientDirection=south;" vertex="1" parent="1">
          <mxGeometry x="1680" y="1150" width="120" height="60" as="geometry" />
        </mxCell>
        <mxCell id="RXY274BOxz8V3t3p-DMx-24" style="edgeStyle=orthogonalEdgeStyle;rounded=1;orthogonalLoop=1;jettySize=auto;html=1;exitX=1;exitY=0.5;exitDx=0;exitDy=0;entryX=0;entryY=0.5;entryDx=0;entryDy=0;strokeColor=#8099E9;fontSize=12;fontColor=#000000;" edge="1" parent="1" source="RXY274BOxz8V3t3p-DMx-21" target="RXY274BOxz8V3t3p-DMx-17">
          <mxGeometry relative="1" as="geometry" />
        </mxCell>
        <mxCell id="RXY274BOxz8V3t3p-DMx-21" value=":CourseIncome" style="rounded=1;whiteSpace=wrap;html=1;strokeColor=#3B337B;fontSize=12;fontColor=#FFFFFF;fillColor=#3B337B;gradientColor=#171430;gradientDirection=south;" vertex="1" parent="1">
          <mxGeometry x="1320" y="1210" width="120" height="60" as="geometry" />
        </mxCell>
        <mxCell id="RXY274BOxz8V3t3p-DMx-27" value=":addReport(), &lt;br&gt;:deleteReport(), &lt;br&gt;editReport()" style="text;html=1;align=center;verticalAlign=middle;resizable=0;points=[];autosize=1;strokeColor=none;fillColor=none;fontSize=12;fontColor=#000000;" vertex="1" parent="1">
          <mxGeometry x="1445" y="1150" width="110" height="60" as="geometry" />
        </mxCell>
        <mxCell id="RXY274BOxz8V3t3p-DMx-30" style="edgeStyle=orthogonalEdgeStyle;rounded=1;orthogonalLoop=1;jettySize=auto;html=1;exitX=0.5;exitY=0.5;exitDx=0;exitDy=0;exitPerimeter=0;entryX=0;entryY=0.5;entryDx=0;entryDy=0;strokeColor=#8099E9;fontSize=12;fontColor=#000000;" edge="1" parent="1" source="RXY274BOxz8V3t3p-DMx-28" target="RXY274BOxz8V3t3p-DMx-29">
          <mxGeometry relative="1" as="geometry" />
        </mxCell>
        <mxCell id="RXY274BOxz8V3t3p-DMx-36" style="edgeStyle=orthogonalEdgeStyle;rounded=1;orthogonalLoop=1;jettySize=auto;html=1;exitX=0.5;exitY=0.5;exitDx=0;exitDy=0;exitPerimeter=0;entryX=0;entryY=0.5;entryDx=0;entryDy=0;strokeColor=#8099E9;fontSize=12;fontColor=#000000;" edge="1" parent="1" source="RXY274BOxz8V3t3p-DMx-28" target="RXY274BOxz8V3t3p-DMx-35">
          <mxGeometry relative="1" as="geometry" />
        </mxCell>
        <mxCell id="RXY274BOxz8V3t3p-DMx-28" value="Developer" style="shape=umlActor;verticalLabelPosition=bottom;verticalAlign=top;html=1;outlineConnect=0;fillColor=#5F4FE3;strokeColor=#3B337B;" vertex="1" parent="1">
          <mxGeometry x="1440" y="530" width="30" height="60" as="geometry" />
        </mxCell>
        <mxCell id="RXY274BOxz8V3t3p-DMx-32" style="edgeStyle=orthogonalEdgeStyle;rounded=1;orthogonalLoop=1;jettySize=auto;html=1;exitX=1;exitY=0.5;exitDx=0;exitDy=0;entryX=0;entryY=0.5;entryDx=0;entryDy=0;strokeColor=#8099E9;fontSize=12;fontColor=#000000;" edge="1" parent="1" source="RXY274BOxz8V3t3p-DMx-29" target="RXY274BOxz8V3t3p-DMx-31">
          <mxGeometry relative="1" as="geometry" />
        </mxCell>
        <mxCell id="RXY274BOxz8V3t3p-DMx-29" value="&lt;font color=&quot;#ffffff&quot;&gt;:IT School&lt;/font&gt;" style="rounded=1;whiteSpace=wrap;html=1;strokeColor=#3B337B;fontSize=12;fillColor=#3B337B;gradientColor=#171430;gradientDirection=south;" vertex="1" parent="1">
          <mxGeometry x="1520" y="490" width="120" height="60" as="geometry" />
        </mxCell>
        <mxCell id="RXY274BOxz8V3t3p-DMx-31" value="&lt;font color=&quot;#ffffff&quot;&gt;:All resources, all accesses other than manager&#39;s&lt;/font&gt;" style="rounded=1;whiteSpace=wrap;html=1;strokeColor=#3B337B;fontSize=12;fillColor=#3B337B;gradientColor=#171430;gradientDirection=south;" vertex="1" parent="1">
          <mxGeometry x="1680" y="530" width="120" height="60" as="geometry" />
        </mxCell>
        <mxCell id="RXY274BOxz8V3t3p-DMx-38" style="edgeStyle=orthogonalEdgeStyle;rounded=1;orthogonalLoop=1;jettySize=auto;html=1;exitX=0.5;exitY=0.5;exitDx=0;exitDy=0;exitPerimeter=0;entryX=0;entryY=0.5;entryDx=0;entryDy=0;strokeColor=#8099E9;fontSize=12;fontColor=#000000;" edge="1" parent="1" source="RXY274BOxz8V3t3p-DMx-33" target="RXY274BOxz8V3t3p-DMx-34">
          <mxGeometry relative="1" as="geometry" />
        </mxCell>
        <mxCell id="RXY274BOxz8V3t3p-DMx-33" value="Admin" style="shape=umlActor;verticalLabelPosition=bottom;verticalAlign=top;html=1;outlineConnect=0;fillColor=#5F4FE3;strokeColor=#3B337B;" vertex="1" parent="1">
          <mxGeometry x="1440" y="770" width="30" height="60" as="geometry" />
        </mxCell>
        <mxCell id="RXY274BOxz8V3t3p-DMx-34" value="&lt;font color=&quot;#ffffff&quot;&gt;:Full access&lt;/font&gt;" style="rounded=1;whiteSpace=wrap;html=1;strokeColor=#3B337B;fontSize=12;fillColor=#3B337B;gradientColor=#171430;gradientDirection=south;" vertex="1" parent="1">
          <mxGeometry x="1520" y="770" width="120" height="60" as="geometry" />
        </mxCell>
        <mxCell id="RXY274BOxz8V3t3p-DMx-37" style="edgeStyle=orthogonalEdgeStyle;rounded=1;orthogonalLoop=1;jettySize=auto;html=1;exitX=1;exitY=0.5;exitDx=0;exitDy=0;entryX=0;entryY=0.5;entryDx=0;entryDy=0;strokeColor=#8099E9;fontSize=12;fontColor=#000000;" edge="1" parent="1" source="RXY274BOxz8V3t3p-DMx-35" target="RXY274BOxz8V3t3p-DMx-31">
          <mxGeometry relative="1" as="geometry" />
        </mxCell>
        <mxCell id="RXY274BOxz8V3t3p-DMx-35" value="&lt;font color=&quot;#ffffff&quot;&gt;:DB&lt;/font&gt;" style="rounded=1;whiteSpace=wrap;html=1;strokeColor=#3B337B;fontSize=12;fillColor=#3B337B;gradientColor=#171430;gradientDirection=south;" vertex="1" parent="1">
          <mxGeometry x="1520" y="570" width="120" height="60" as="geometry" />
        </mxCell>
      </root>
    </mxGraphModel>
  </diagram>
</mxfile>
